<svg xmlns="http://www.w3.org/2000/svg" width="1600" height="900" viewBox="0 0 1600 900">
<defs>
<linearGradient id="g" x1="0" y1="0" x2="1" y2="1"><stop stop-color="#0d2242"/><stop offset="1" stop-color="#2e66b3"/></linearGradient>
</defs>
<rect width="1600" height="900" fill="url(#g)"/>
<g opacity="0.16" stroke="#fff" stroke-width="2">
<path d="M0 120H1600M0 300H1600M0 480H1600M0 660H1600M0 840H1600"/>
<path d="M180 0V900M420 0V900M660 0V900M900 0V900M1140 0V900M1380 0V900"/>
</g>
<g fill="none" stroke="#9cc7ff" stroke-width="4" opacity="0.65">
<rect x="120" y="130" width="520" height="290" rx="28"/>
<rect x="830" y="230" width="470" height="250" rx="28"/>
<rect x="390" y="520" width="640" height="190" rx="28"/>
</g>
<g fill="#fff">
<text x="120" y="760" font-family="Inter,Arial,sans-serif" font-size="72" font-weight="700">Техническая документация</text>
<text x="120" y="820" font-family="Inter,Arial,sans-serif" font-size="30" opacity="0.8">Изображение-заглушка для сайта</text>
</g>
</svg>